REM DIRINDEX 1\5,1\2\6,1\2\7,1\3\8,1\3\9,1\4\10,1\4\11,1\4\12
REM DIRNAME cjc026,folder01,folder02,folder03,folder04,folder05,folder06,folder07,folder08,folder09,folder10,folder11
TITLE ""
FILE "EJE_DB3000_5th_2A_54.mp3" MP3
  TRACK 01 AUDIO
    TITLE "0:"
    INDEX 01 00:00:00
  TRACK 02 AUDIO
    TITLE "10:cjc026_08328"
    INDEX 01 00:00:08
  TRACK 03 AUDIO
    TITLE "0:"
    INDEX 01 00:01:33
  TRACK 04 AUDIO
    TITLE "11:cjc026_08329"
    INDEX 01 00:01:68
  TRACK 05 AUDIO
    TITLE "0:"
    INDEX 01 00:03:31
  TRACK 06 AUDIO
    TITLE "12:cjc026_08330"
    INDEX 01 00:03:66
  TRACK 07 AUDIO
    TITLE "0:"
    INDEX 01 00:05:19
  TRACK 08 AUDIO
    TITLE "10:cjc026_08331"
    INDEX 01 00:05:54
  TRACK 09 AUDIO
    TITLE "0:"
    INDEX 01 00:07:06
  TRACK 10 AUDIO
    TITLE "11:cjc026_08332"
    INDEX 01 00:07:42
  TRACK 11 AUDIO
    TITLE "0:"
    INDEX 01 00:09:00
  TRACK 12 AUDIO
    TITLE "12:cjc026_08333"
    INDEX 01 00:09:37
  TRACK 13 AUDIO
    TITLE "0:"
    INDEX 01 00:10:62
  TRACK 14 AUDIO
    TITLE "10:cjc026_08334"
    INDEX 01 00:11:22
  TRACK 15 AUDIO
    TITLE "0:"
    INDEX 01 00:12:45
  TRACK 16 AUDIO
    TITLE "11:cjc026_08335"
    INDEX 01 00:13:07
  TRACK 17 AUDIO
    TITLE "0:"
    INDEX 01 00:14:46
  TRACK 18 AUDIO
    TITLE "12:cjc026_08336"
    INDEX 01 00:15:06
  TRACK 19 AUDIO
    TITLE "0:"
    INDEX 01 00:16:28
  TRACK 20 AUDIO
    TITLE "10:cjc026_08337"
    INDEX 01 00:16:69
  TRACK 21 AUDIO
    TITLE "0:"
    INDEX 01 00:18:10
  TRACK 22 AUDIO
    TITLE "11:cjc026_08338"
    INDEX 01 00:18:45
  TRACK 23 AUDIO
    TITLE "0:"
    INDEX 01 00:20:12
  TRACK 24 AUDIO
    TITLE "12:cjc026_08339"
    INDEX 01 00:20:47
  TRACK 25 AUDIO
    TITLE "0:"
    INDEX 01 00:21:66
  TRACK 26 AUDIO
    TITLE "10:cjc026_08340"
    INDEX 01 00:22:24
  TRACK 27 AUDIO
    TITLE "0:"
    INDEX 01 00:23:51
  TRACK 28 AUDIO
    TITLE "11:cjc026_08341"
    INDEX 01 00:24:14
  TRACK 29 AUDIO
    TITLE "0:"
    INDEX 01 00:25:55
  TRACK 30 AUDIO
    TITLE "12:cjc026_08342"
    INDEX 01 00:26:15
  TRACK 31 AUDIO
    TITLE "0:"
    INDEX 01 00:27:40
  TRACK 32 AUDIO
    TITLE "10:cjc026_08343"
    INDEX 01 00:28:03
  TRACK 33 AUDIO
    TITLE "0:"
    INDEX 01 00:29:49
  TRACK 34 AUDIO
    TITLE "11:cjc026_08344"
    INDEX 01 00:30:12
  TRACK 35 AUDIO
    TITLE "0:"
    INDEX 01 00:31:45
  TRACK 36 AUDIO
    TITLE "12:cjc026_08345"
    INDEX 01 00:32:03
  TRACK 37 AUDIO
    TITLE "0:"
    INDEX 01 00:33:52
  TRACK 38 AUDIO
    TITLE "10:cjc026_08346"
    INDEX 01 00:34:12
  TRACK 39 AUDIO
    TITLE "0:"
    INDEX 01 00:35:34
  TRACK 40 AUDIO
    TITLE "11:cjc026_08347"
    INDEX 01 00:35:69
  TRACK 41 AUDIO
    TITLE "0:"
    INDEX 01 00:37:35
  TRACK 42 AUDIO
    TITLE "12:cjc026_08348"
    INDEX 01 00:37:70
  TRACK 43 AUDIO
    TITLE "0:"
    INDEX 01 00:39:18
  TRACK 44 AUDIO
    TITLE "10:cjc026_08349"
    INDEX 01 00:39:55
  TRACK 45 AUDIO
    TITLE "0:"
    INDEX 01 00:41:05
  TRACK 46 AUDIO
    TITLE "11:cjc026_08350"
    INDEX 01 00:41:43
  TRACK 47 AUDIO
    TITLE "0:"
    INDEX 01 00:42:73
  TRACK 48 AUDIO
    TITLE "12:cjc026_08351"
    INDEX 01 00:43:28
  TRACK 49 AUDIO
    TITLE "0:"
    INDEX 01 00:44:58
  TRACK 50 AUDIO
    TITLE "10:cjc026_08352"
    INDEX 01 00:45:21
  TRACK 51 AUDIO
    TITLE "0:"
    INDEX 01 00:47:60
  TRACK 52 AUDIO
    TITLE "11:cjc026_08353"
    INDEX 01 00:48:23
  TRACK 53 AUDIO
    TITLE "0:"
    INDEX 01 00:49:48
  TRACK 54 AUDIO
    TITLE "12:cjc026_08354"
    INDEX 01 00:50:08
  TRACK 55 AUDIO
    TITLE "0:"
    INDEX 01 00:52:47
  TRACK 56 AUDIO
    TITLE "10:cjc026_08355"
    INDEX 01 00:53:10
  TRACK 57 AUDIO
    TITLE "0:"
    INDEX 01 00:54:35
  TRACK 58 AUDIO
    TITLE "11:cjc026_08356"
    INDEX 01 00:54:67
  TRACK 59 AUDIO
    TITLE "0:"
    INDEX 01 00:56:12
  TRACK 60 AUDIO
    TITLE "12:cjc026_08357"
    INDEX 01 00:56:47
  TRACK 61 AUDIO
    TITLE "0:"
    INDEX 01 00:57:74
  TRACK 62 AUDIO
    TITLE "10:cjc026_08358"
    INDEX 01 00:58:37
  TRACK 63 AUDIO
    TITLE "0:"
    INDEX 01 00:59:57
  TRACK 64 AUDIO
    TITLE "11:cjc026_08359"
    INDEX 01 01:00:17
  TRACK 65 AUDIO
    TITLE "0:"
    INDEX 01 01:01:33
  TRACK 66 AUDIO
    TITLE "12:cjc026_08360"
    INDEX 01 01:01:69
  TRACK 67 AUDIO
    TITLE "0:"
    INDEX 01 01:03:13
